<?xml version="1.0" standalone="no"?>
<!DOCTYPE svg PUBLIC "-//W3C//DTD SVG 20010904//EN"
 "http://www.w3.org/TR/2001/REC-SVG-20010904/DTD/svg10.dtd">
<svg version="1.0" xmlns="http://www.w3.org/2000/svg"
 width="489.000000pt" height="512.000000pt" viewBox="0 0 489.000000 512.000000"
 preserveAspectRatio="xMidYMid meet">

<g transform="translate(0.000000,512.000000) scale(0.100000,-0.100000)"
fill="#000000" stroke="none">
<path d="M651 5089 c-142 -30 -226 -249 -252 -658 -11 -186 -9 -330 12 -621
11 -150 10 -159 -14 -270 -25 -111 -39 -201 -52 -343 -7 -68 -7 -69 -43 -83
-141 -55 -251 -146 -272 -224 -14 -51 -8 -401 10 -600 35 -381 137 -795 260
-1057 100 -213 266 -420 438 -549 42 -32 81 -61 85 -65 5 -4 13 -41 17 -82 13
-113 56 -188 140 -244 197 -132 534 -232 899 -268 195 -19 326 -19 527 0 333
32 584 101 828 228 149 78 197 144 212 294 l7 64 61 47 c155 117 281 251 370
390 l40 63 51 -8 c27 -4 100 -7 160 -7 88 1 125 6 187 26 525 172 723 832 358
1199 -106 106 -218 162 -360 178 l-55 6 -5 200 c-6 225 -9 237 -82 300 -24 20
-86 58 -138 83 l-95 47 -8 95 c-8 106 -41 300 -62 372 -11 40 -11 69 1 200 17
185 19 592 4 743 -28 279 -93 457 -190 521 -35 24 -51 27 -114 27 -159 -1
-438 -123 -746 -326 l-105 -69 -145 22 c-107 17 -206 24 -377 27 -233 5 -320
0 -535 -34 l-106 -17 -99 66 c-352 233 -664 358 -812 327z m164 -291 c86 -57
253 -212 285 -264 28 -44 19 -60 -70 -119 -92 -61 -225 -188 -291 -276 -66
-89 -79 -96 -116 -65 l-28 24 -3 186 c-6 313 49 566 123 566 13 0 58 -23 100
-52z m2781 44 c60 -39 114 -378 99 -616 -8 -122 -15 -150 -44 -165 -30 -16
-48 -4 -93 62 -60 88 -200 224 -296 287 -89 59 -105 84 -78 122 27 39 157 167
222 219 103 82 162 110 190 91z m-2249 -1224 c138 -65 203 -222 157 -378 -21
-71 -107 -159 -178 -183 -154 -52 -309 9 -378 151 -28 57 -33 77 -32 137 2
223 230 367 431 273z m1849 1 c100 -48 164 -142 172 -250 9 -133 -57 -249
-175 -304 -49 -24 -65 -26 -137 -23 -96 4 -142 24 -204 86 -200 199 -40 540
242 517 33 -3 79 -14 102 -26z m-946 -345 c45 -18 60 -38 60 -83 0 -34 -38
-84 -81 -107 -57 -29 -20 -93 66 -115 50 -13 70 -37 61 -75 -12 -47 -114 -40
-184 13 l-33 25 -22 -20 c-31 -29 -89 -52 -131 -52 -27 0 -40 6 -52 25 -15 23
-15 27 -1 49 10 14 33 28 59 34 46 12 81 42 92 78 6 18 -1 26 -40 49 -45 26
-74 70 -74 113 0 22 34 57 70 71 40 16 165 13 210 -5z m-1910 -293 c0 -16 3
-43 6 -60 6 -30 6 -31 -25 -25 -61 13 -94 -53 -50 -97 32 -32 150 -83 272
-118 205 -58 592 -111 1047 -143 270 -19 943 -16 1195 5 505 43 820 92 1025
159 93 30 197 84 215 112 29 45 -13 98 -65 81 -18 -6 -20 -2 -20 42 0 77 9 83
76 50 78 -38 119 -72 134 -108 17 -40 7 -449 -15 -639 -53 -455 -149 -796
-300 -1070 -229 -412 -693 -692 -1293 -780 -170 -25 -594 -28 -762 -6 -336 45
-646 155 -883 313 -129 85 -298 249 -375 361 -241 353 -374 880 -397 1583 -8
229 -6 241 57 294 34 29 123 75 146 75 7 0 12 -12 12 -29z m4051 -599 c90 -25
152 -63 225 -138 170 -175 199 -423 78 -673 -38 -78 -60 -109 -132 -181 -71
-71 -103 -95 -172 -129 -120 -58 -194 -75 -308 -69 -51 3 -95 8 -98 11 -7 7
-2 20 50 147 l34 85 40 -3 c22 -2 69 4 103 13 170 43 281 189 281 365 0 91
-23 150 -82 214 -41 45 -113 86 -149 86 -11 0 -23 5 -26 11 -4 6 -1 71 6 145
l13 134 36 0 c19 0 65 -8 101 -18z m-71 -411 c40 -29 73 -103 73 -164 0 -112
-87 -230 -194 -261 -99 -30 -102 -26 -68 94 11 41 33 139 49 217 15 78 31 146
34 152 8 12 66 -8 106 -38z m-3083 -1561 c297 -109 622 -157 988 -147 392 11
751 94 1043 241 81 41 87 36 53 -39 -25 -56 -67 -88 -195 -150 -272 -131 -611
-198 -991 -198 -387 0 -730 74 -1009 215 -103 53 -122 67 -147 106 -16 25 -29
59 -29 74 l0 28 88 -45 c49 -24 138 -63 199 -85z"/>
<path d="M1130 3518 c-125 -63 -145 -227 -40 -322 88 -80 239 -53 298 52 l23
41 -40 20 c-22 12 -43 26 -46 32 -4 6 9 27 29 48 20 20 36 41 36 47 0 17 -63
72 -102 88 -52 22 -106 20 -158 -6z"/>
<path d="M3007 3530 c-40 -12 -94 -56 -112 -89 -51 -100 -6 -237 92 -277 80
-34 192 -3 238 64 33 48 31 67 -5 82 -54 22 -57 37 -17 78 21 21 37 43 37 49
0 20 -78 82 -117 92 -44 13 -77 13 -116 1z"/>
<path d="M2164 3215 c-19 -15 -19 -15 0 -30 26 -20 51 -19 71 2 16 16 16 17
-1 30 -23 17 -46 16 -70 -2z"/>
<path d="M1965 2248 c-3 -7 -36 -107 -75 -221 -38 -115 -80 -228 -94 -251 -14
-24 -52 -68 -84 -98 -50 -46 -85 -66 -223 -126 -214 -93 -214 -92 -22 -177
182 -80 221 -103 276 -165 60 -66 82 -116 157 -345 65 -200 80 -230 104 -205
7 8 46 113 86 233 111 337 129 356 442 491 171 74 171 75 -24 160 -214 94
-280 142 -333 246 -10 19 -50 132 -90 250 -62 186 -75 215 -93 218 -12 2 -24
-3 -27 -10z"/>
<path d="M2546 2203 c-25 -80 -39 -99 -96 -128 -28 -14 -50 -30 -50 -35 0 -5
17 -17 37 -25 58 -24 81 -52 105 -127 12 -37 25 -68 29 -68 4 0 17 30 29 68
22 65 53 112 74 112 6 0 27 10 46 21 l34 21 -57 29 c-60 31 -72 47 -101 137
-10 28 -21 52 -25 52 -4 0 -15 -26 -25 -57z"/>
<path d="M2967 1803 c-3 -5 -10 -27 -17 -51 -12 -47 -29 -68 -81 -95 l-34 -19
35 -18 c48 -25 64 -46 85 -110 20 -59 17 -61 50 33 13 38 25 52 56 67 43 22
49 36 20 45 -42 13 -70 46 -86 100 -16 55 -20 62 -28 48z"/>
<path d="M2787 1273 c-2 -4 -14 -39 -27 -76 -28 -86 -65 -128 -135 -157 -30
-12 -53 -26 -50 -30 3 -5 34 -22 69 -38 71 -33 80 -44 117 -152 14 -41 29 -75
34 -75 5 0 20 34 34 75 37 108 46 119 117 152 35 16 66 33 69 38 3 4 -20 18
-50 30 -70 29 -107 71 -135 157 -23 71 -34 91 -43 76z"/>
</g>
</svg>
